<?xml version="1.0" encoding="utf-8"?>
<!-- Generator: Adobe Illustrator 23.0.1, SVG Export Plug-In . SVG Version: 6.00 Build 0)  -->
<svg version="1.1" id="Layer_1" xmlns="http://www.w3.org/2000/svg" xmlns:xlink="http://www.w3.org/1999/xlink" x="0px" y="0px"
	 viewBox="0 0 700.21 138.78" style="enable-background:new 0 0 700.21 138.78;" xml:space="preserve">

<g id="XMLID_337_">
	<g id="XMLID_3034_">
		<path id="XMLID_3045_" fill="#F93822" class="st0" d="M223.18,52.42h-63.81c-0.84,0-1.52,0.68-1.52,1.52v11.65c0,0.84,0.68,1.52,1.52,1.52h23.95
			v70.26h15.76V67.11h24.09c0.84,0,1.52-0.68,1.52-1.52V53.94C224.7,53.11,224.02,52.42,223.18,52.42z"/>
		<path id="XMLID_3044_" fill="#F93822" class="st0" d="M270.7,72.53c-7.85,0-13.64,2.61-17.7,7.98l-0.9,1.19V53.94c0-0.84-0.68-1.52-1.52-1.52
			h-12.32c-0.84,0-1.52,0.68-1.52,1.52v83.42h15.36v-35.97c0-4.49,1.22-8.12,3.61-10.8c2.36-2.64,5.64-3.92,10.02-3.92
			c3.93,0,7.21,1.36,9.75,4.05c2.49,2.63,3.76,6.26,3.76,10.8v35.84h15.36V99.11c0-8.19-2.21-14.75-6.57-19.51
			C283.72,74.92,277.89,72.53,270.7,72.53z"/>
		<path id="XMLID_3043_" fill="#F93822" class="st0" d="M319.2,46.12c-2.45,0-4.58,0.9-6.35,2.67c-1.77,1.77-2.67,3.91-2.67,6.35
			c0,2.53,0.9,4.71,2.67,6.48c1.77,1.77,3.91,2.67,6.35,2.67c2.57,0,4.69-0.87,6.48-2.67c1.8-1.8,2.67-3.92,2.67-6.48
			c0-2.45-0.9-4.58-2.67-6.35C323.89,46.99,321.77,46.12,319.2,46.12z"/>
		<path id="XMLID_3042_" fill="#F93822" class="st0" d="M325.49,74.14h-12.32c-0.84,0-1.52,0.68-1.52,1.52v61.7h15.36v-61.7
			C327.01,74.83,326.33,74.14,325.49,74.14z"/>
		<path id="XMLID_3041_" fill="#F93822" class="st0" d="M378.33,72.53c-7.85,0-13.64,2.61-17.7,7.98l-0.9,1.19v-6.04c0-0.84-0.68-1.52-1.52-1.52
			h-12.32c-0.84,0-1.52,0.68-1.52,1.52v61.7h15.36v-35.97c0-4.49,1.22-8.12,3.62-10.8c2.36-2.64,5.64-3.92,10.02-3.92
			c3.92,0,7.21,1.36,9.75,4.05c2.49,2.63,3.76,6.26,3.76,10.8v35.84h15.36V99.11c0-8.19-2.21-14.75-6.57-19.51
			C391.36,74.92,385.53,72.53,378.33,72.53z"/>
		<path id="XMLID_3040_" fill="#F93822" class="st0" d="M455.11,103.4l0.21-0.29l19.49-26.55c0.74-1,0.02-2.42-1.23-2.42h-14.16
			c-0.99,0-1.91,0.48-2.48,1.28l-15.58,21.92h-8.53v-49.7c0-0.84-0.68-1.52-1.52-1.52h-12.32c-0.84,0-1.52,0.68-1.52,1.52v89.73
			h15.36v-26.15h8.81l17.56,26.15h19.3L455.11,103.4z"/>
		<path id="XMLID_3039_" fill="#F93822" class="st0" d="M643.38,74.14h-12.32c-0.84,0-1.52,0.68-1.52,1.52v32.51c0,4.87-1.27,8.7-3.88,11.72
			c-2.64,3.05-6.15,4.6-10.43,4.6c-4.29,0-7.8-1.55-10.44-4.6c-2.61-3.02-3.88-6.86-3.88-11.72v-32.5c0-0.84-0.68-1.52-1.52-1.52
			h-11.78c-0.84,0-1.52,0.68-1.52,1.52v33.71c0,8.97,2.63,15.96,8.03,21.37c5.33,5.33,12.52,8.03,21.37,8.03s16.04-2.7,21.37-8.03
			c5.41-5.41,8.03-12.4,8.03-21.37V75.67C644.9,74.83,644.22,74.14,643.38,74.14z"/>
		<path id="XMLID_3036_" fill="#F93822" class="st0" d="M529.48,51.01c-24.2,0-43.88,19.69-43.88,43.88c0,24.2,19.69,43.88,43.88,43.88
			c24.2,0,43.88-19.69,43.88-43.88C573.36,70.7,553.68,51.01,529.48,51.01z M529.48,122.37c-15.15,0-27.48-12.33-27.48-27.48
			c0-15.15,12.33-27.48,27.48-27.48c15.15,0,27.48,12.33,27.48,27.48C556.96,110.05,544.63,122.37,529.48,122.37z"/>
		<path id="XMLID_3035_" fill="#F93822" class="st0" d="M698.69,87.63c0.84,0,1.52-0.68,1.52-1.52V75.67c0-0.84-0.68-1.52-1.52-1.52h-15.91V58.57
			c0-0.84-0.68-1.52-1.52-1.52h-12.32c-0.84,0-1.52,0.68-1.52,1.52v15.57h-9.87c-0.84,0-1.52,0.68-1.52,1.52V86.1
			c0,0.84,0.68,1.52,1.52,1.52h9.87l-0.03,28.78c0,7.47,2.08,13.11,6.19,16.74c4.21,3.73,10.15,5.63,17.64,5.63
			c2.71,0,5.65-0.33,8.98-1.01v-13.05c-3.01,0.23-5.53,0.26-5.55,0.26c-4.03,0-6.93-0.76-8.88-2.31c-1.94-1.55-2.88-4.08-2.88-7.73
			l0.01-27.32h15.79V87.63z"/>
	</g>
	<g id="XMLID_3032_">
		<path id="XMLID_3033_" fill="#F93822" class="st0" d="M60.88,113.09c-33.45,0-60.67-27.21-60.67-60.67c0-28.82,23.44-52.26,52.26-52.26
			s52.26,23.44,52.26,52.26H89.98c-1.12,0-2.05-0.87-2.11-1.98c-1.03-18.63-16.51-33.47-35.4-33.47c-19.55,0-35.46,15.9-35.46,35.45
			c0,24.18,19.67,43.86,43.86,43.86s43.86-19.67,43.86-43.86h14.65c1.21,0,2.17,1.02,2.12,2.23
			C120.32,87.07,93.58,113.09,60.88,113.09z"/>
	</g>
</g>
</svg>
