<?xml version="1.0" standalone="no"?>
<!DOCTYPE svg PUBLIC "-//W3C//DTD SVG 20010904//EN"
 "http://www.w3.org/TR/2001/REC-SVG-20010904/DTD/svg10.dtd">
<svg version="1.0" xmlns="http://www.w3.org/2000/svg"
 width="960.000000pt" height="960.000000pt" viewBox="0 0 960.000000 960.000000"
 preserveAspectRatio="xMidYMid meet">
<metadata>
Created by potrace 1.11, written by Peter Selinger 2001-2013
</metadata>
<g transform="translate(0.000000,960.000000) scale(0.100000,-0.100000)"
fill="#000000" stroke="none">
<path d="M3899 9256 c-2 -2 -40 -6 -84 -10 -133 -10 -188 -15 -230 -21 -22 -4
-53 -9 -70 -11 -16 -2 -43 -7 -58 -10 -16 -3 -38 -7 -50 -9 -52 -6 -112 -17
-118 -20 -3 -2 -21 -7 -40 -10 -46 -9 -64 -13 -64 -15 0 -1 -9 -3 -20 -5 -97
-18 -366 -101 -500 -155 -44 -18 -84 -33 -90 -34 -45 -10 -508 -241 -513 -257
-2 -5 -8 -9 -13 -9 -12 0 -231 -136 -256 -160 -11 -9 -31 -24 -45 -31 -31 -17
-97 -68 -327 -254 -52 -42 -351 -344 -411 -415 -35 -41 -69 -80 -74 -87 -6 -6
-21 -24 -33 -40 -34 -45 -82 -107 -91 -118 -4 -5 -23 -32 -42 -60 -19 -27 -37
-51 -42 -53 -4 -2 -8 -10 -8 -18 0 -8 -4 -14 -10 -14 -5 0 -10 -7 -10 -15 0
-8 -4 -15 -10 -15 -5 0 -10 -6 -10 -13 0 -8 -9 -22 -20 -32 -11 -10 -18 -20
-15 -23 2 -2 -6 -19 -19 -36 -61 -80 -250 -438 -239 -450 4 -3 1 -6 -5 -6 -6
0 -14 -10 -17 -22 -4 -13 -15 -41 -25 -63 -17 -35 -40 -90 -45 -105 -1 -3 -7
-18 -13 -33 -7 -16 -12 -32 -12 -36 0 -4 -9 -25 -19 -47 -11 -21 -17 -42 -14
-46 2 -5 0 -8 -5 -8 -5 0 -9 -6 -9 -12 0 -7 -14 -56 -31 -109 -31 -97 -69
-233 -78 -279 -3 -14 -7 -33 -10 -42 -3 -10 -7 -30 -10 -45 -3 -16 -14 -70
-25 -122 -11 -52 -21 -115 -23 -140 -2 -25 -6 -53 -9 -61 -3 -8 -5 -22 -5 -30
-1 -8 -3 -33 -6 -55 -21 -171 -29 -636 -13 -820 16 -187 18 -211 23 -235 2
-14 7 -45 10 -70 3 -25 11 -83 19 -128 8 -46 14 -87 13 -90 -1 -4 1 -14 5 -22
3 -8 13 -51 22 -95 14 -71 22 -104 40 -180 3 -11 7 -29 9 -40 3 -11 15 -51 26
-90 12 -38 25 -83 30 -100 27 -105 144 -418 186 -497 13 -27 22 -48 19 -48 -2
0 33 -76 80 -169 107 -213 255 -469 277 -479 5 -2 8 -10 8 -17 0 -7 11 -27 25
-43 14 -17 25 -34 25 -40 0 -6 4 -12 8 -14 4 -1 18 -19 32 -38 26 -39 162
-222 170 -230 3 -3 37 -43 75 -89 140 -170 428 -462 562 -571 79 -64 129 -106
133 -110 3 -3 52 -41 110 -83 58 -43 114 -85 125 -93 17 -13 119 -80 164 -109
118 -75 170 -105 179 -105 5 0 12 -3 14 -7 7 -18 470 -253 528 -268 9 -3 65
-25 85 -35 74 -34 419 -150 455 -153 11 -1 20 -4 20 -8 0 -4 15 -9 33 -12 17
-3 70 -15 117 -27 47 -12 93 -24 103 -26 9 -2 27 -6 40 -9 12 -3 38 -8 57 -11
19 -3 42 -7 50 -9 8 -3 33 -7 55 -10 22 -4 51 -8 65 -11 69 -13 167 -27 290
-39 267 -27 740 -27 975 0 38 4 121 14 175 21 14 2 43 5 65 8 22 2 60 9 85 14
25 6 65 14 90 17 24 4 47 8 50 10 4 2 29 7 56 11 27 3 52 8 57 11 4 2 19 7 34
9 20 4 221 58 288 78 6 2 24 6 40 11 17 4 36 12 43 18 6 5 12 7 12 4 0 -3 25
3 55 14 30 10 61 19 69 19 8 0 16 3 18 8 2 4 28 15 58 25 50 17 168 64 260
104 161 70 550 276 558 295 2 4 8 8 13 8 9 0 269 167 279 179 3 4 39 31 80 61
84 61 199 153 310 249 101 88 410 397 410 410 0 6 4 11 8 11 5 0 33 30 63 67
30 37 61 75 70 84 9 9 36 43 60 75 24 33 54 70 67 84 12 14 25 33 28 42 3 10
9 18 13 18 4 0 17 18 30 40 12 22 25 40 29 40 4 0 12 9 17 19 6 11 53 88 107
173 99 157 169 283 237 423 53 109 101 215 99 218 -1 1 5 13 12 27 8 14 15 30
16 35 2 6 17 44 34 85 27 63 138 382 144 415 1 6 5 19 9 30 3 11 9 31 11 45 3
14 17 70 31 125 14 55 28 111 30 125 2 14 4 25 5 25 1 0 3 11 5 25 5 28 12 62
15 70 1 3 2 8 1 12 0 4 6 38 14 76 8 38 16 89 19 113 3 24 8 62 10 84 21 170
30 287 31 397 0 93 -1 97 -31 134 -17 21 -44 42 -60 47 -16 6 -280 10 -616 11
-525 2 -588 0 -589 -14 0 -8 -2 -60 -4 -115 -5 -137 -15 -263 -30 -352 -3 -18
-7 -50 -10 -70 -5 -32 -13 -76 -30 -163 -2 -8 -4 -15 -5 -15 -1 0 -4 -13 -6
-30 -3 -16 -7 -37 -11 -45 -3 -8 -7 -27 -9 -42 -2 -14 -11 -48 -20 -75 -9 -26
-17 -52 -19 -58 -13 -64 -82 -263 -111 -318 -8 -16 -12 -33 -8 -38 3 -5 1 -9
-3 -9 -5 0 -15 -17 -22 -37 -25 -72 -154 -320 -218 -420 -18 -29 -33 -57 -33
-63 0 -5 -4 -10 -10 -10 -5 0 -10 -7 -10 -15 0 -8 -4 -15 -10 -15 -5 0 -10 -5
-10 -10 0 -6 -5 -16 -10 -23 -6 -7 -43 -57 -83 -112 -39 -55 -76 -105 -82
-111 -5 -6 -28 -33 -50 -60 -92 -112 -298 -323 -396 -406 -24 -20 -55 -47 -69
-59 -14 -11 -41 -33 -60 -47 -19 -15 -51 -39 -70 -55 -50 -40 -48 -38 -130
-93 -88 -59 -207 -132 -288 -176 -145 -78 -314 -158 -335 -158 -7 0 -17 -4
-22 -8 -6 -5 -23 -14 -40 -20 -16 -6 -43 -17 -60 -23 -16 -7 -34 -13 -40 -14
-5 -2 -51 -16 -100 -33 -145 -49 -386 -108 -524 -127 -14 -2 -44 -7 -66 -10
-22 -4 -56 -8 -75 -10 -151 -13 -216 -17 -290 -19 -47 -1 -91 -5 -98 -10 -7
-4 -12 -4 -12 1 0 4 -44 8 -98 9 -91 0 -249 10 -303 19 -28 4 -96 13 -154 20
-22 3 -55 10 -75 15 -19 5 -51 11 -70 14 -37 5 -167 34 -188 41 -7 2 -14 5
-17 5 -3 1 -19 6 -37 11 -48 15 -71 20 -85 21 -7 1 -13 6 -13 11 0 6 -3 8 -6
5 -5 -6 -55 11 -229 76 -86 32 -78 28 -255 115 -80 39 -172 87 -205 107 -33
19 -68 38 -77 41 -10 3 -18 9 -18 13 0 4 -13 13 -30 20 -16 7 -30 16 -30 21 0
5 -6 9 -13 9 -7 0 -22 8 -33 19 -11 10 -31 24 -44 31 -13 7 -29 17 -34 21 -6
5 -29 23 -51 39 -54 40 -124 96 -183 145 -130 108 -332 312 -444 449 -19 23
-18 21 -68 86 -19 25 -38 47 -42 48 -5 2 -8 10 -8 17 0 8 -8 19 -17 24 -10 6
-13 11 -8 11 6 0 5 3 -1 8 -10 6 -125 178 -163 243 -88 150 -261 507 -261 540
0 4 -5 20 -12 36 -6 15 -12 33 -14 38 -1 6 -10 30 -19 55 -21 55 -54 166 -61
200 -3 14 -9 39 -14 55 -14 43 -43 181 -54 255 -2 14 -6 39 -9 55 -6 32 -17
110 -23 160 -18 158 -23 448 -10 600 12 152 14 169 24 215 5 25 10 52 10 60 1
8 6 35 11 60 6 25 12 54 15 65 25 111 63 243 94 322 11 29 17 54 14 57 -3 4
-1 6 5 6 5 0 10 6 10 13 0 6 7 28 16 47 68 148 96 211 96 217 -1 3 3 9 8 12 5
3 17 22 26 41 19 38 27 52 70 118 15 24 27 45 27 47 0 10 128 187 197 272 102
127 358 383 383 383 6 0 10 4 10 8 0 5 21 24 48 42 26 19 49 37 52 40 3 3 28
22 55 41 28 18 52 37 53 42 2 4 7 7 12 7 5 0 36 18 69 40 33 22 64 40 70 40 5
0 11 4 13 8 4 10 327 170 358 177 3 1 16 6 30 12 91 37 308 103 380 117 14 2
45 9 70 14 25 6 63 13 85 16 23 4 50 8 60 10 11 2 47 7 80 10 124 13 160 18
168 23 4 2 7 0 7 -6 0 -6 11 -7 28 -2 44 12 400 2 480 -14 15 -3 45 -7 67 -10
22 -3 54 -8 70 -12 17 -3 37 -7 45 -8 86 -12 295 -69 406 -111 51 -19 95 -34
98 -34 21 0 310 -144 399 -198 34 -21 73 -45 87 -53 14 -8 27 -17 30 -20 3 -3
27 -21 55 -39 50 -34 76 -55 100 -77 8 -7 18 -13 23 -13 6 0 12 -3 14 -7 2 -5
32 -33 68 -63 113 -95 316 -304 383 -395 4 -5 21 -26 37 -45 16 -19 30 -40 30
-47 0 -6 3 -13 8 -15 23 -10 137 -192 219 -348 33 -63 61 -118 62 -122 1 -4
12 -31 25 -60 24 -55 33 -78 35 -90 1 -5 12 -33 26 -63 13 -30 21 -55 18 -55
-3 0 0 -7 7 -15 7 -8 9 -15 4 -15 -4 0 -3 -5 4 -12 7 -7 12 -24 12 -38 0 -14
4 -30 9 -35 7 -9 34 -105 47 -170 2 -11 6 -31 9 -45 3 -14 12 -63 21 -110 15
-85 20 -118 29 -220 14 -159 25 -185 94 -217 30 -15 100 -17 615 -17 320 -1
593 0 607 2 26 4 26 4 24 88 -1 46 -5 87 -8 90 -4 4 -2 14 3 24 5 10 7 20 4
23 -3 3 -8 36 -10 74 -4 72 -12 151 -18 193 -3 14 -7 48 -10 75 -4 28 -9 63
-12 79 -4 16 -7 40 -9 55 -2 14 -5 35 -8 46 -2 11 -7 38 -11 60 -4 22 -16 78
-28 125 -11 47 -22 94 -25 105 -9 40 -11 50 -13 50 -1 0 -3 7 -5 15 -11 57
-121 381 -154 455 -5 11 -16 36 -24 55 -9 19 -26 58 -38 85 -12 28 -22 53 -21
58 1 4 -3 7 -10 7 -6 0 -8 3 -5 6 4 4 -2 19 -12 33 -10 14 -22 37 -26 51 -4
14 -16 36 -26 49 -11 13 -19 28 -19 33 0 14 -114 209 -188 323 -57 88 -196
279 -226 311 -6 7 -22 26 -36 44 -67 86 -157 185 -275 304 -82 82 -118 116
-240 225 -37 33 -283 224 -321 248 -10 7 -45 31 -77 53 -32 22 -61 40 -64 40
-3 0 -21 11 -39 25 -18 14 -44 29 -58 35 -14 5 -26 14 -26 20 0 5 -8 10 -17
10 -9 0 -24 6 -32 14 -23 20 -316 169 -376 191 -27 10 -55 22 -60 26 -6 4 -33
16 -60 27 -28 10 -59 23 -70 27 -11 5 -22 9 -25 10 -3 1 -12 5 -20 8 -39 17
-299 100 -350 112 -3 0 -14 4 -25 8 -11 3 -31 9 -45 11 -14 3 -45 10 -70 16
-25 6 -56 13 -70 16 -27 4 -97 18 -170 34 -25 5 -63 11 -85 14 -22 2 -80 9
-130 16 -49 6 -112 14 -140 16 -60 7 -581 15 -586 10z"/>
</g>
</svg>
